<?xml version="1.0" encoding="UTF-8"?>
<svg width="36.25mm" height="17.437mm" version="1.1" viewBox="0 0 36.25 17.437" xmlns="http://www.w3.org/2000/svg" xmlns:cc="http://creativecommons.org/ns#" xmlns:dc="http://purl.org/dc/elements/1.1/" xmlns:rdf="http://www.w3.org/1999/02/22-rdf-syntax-ns#">
 <defs>
  <style type="text/css">.fil0 {fill:black}</style>
  <clipPath id="clipPath4758">
   <rect x="7.1135" y="38.211" width="154.17" height="172.89" fill="none" stroke-width="9.5474"/>
  </clipPath>
  <clipPath id="clipPath4762">
   <rect x="14.882" y="9.5383" width="154.21" height="172.94" fill="none" stroke-width="9.5503"/>
  </clipPath>
 </defs>
 <metadata>
  <rdf:RDF>
   <cc:Work rdf:about="">
    <dc:format>image/svg+xml</dc:format>
    <dc:type rdf:resource="http://purl.org/dc/dcmitype/StillImage"/>
    <dc:title/>
   </cc:Work>
  </rdf:RDF>
 </metadata>
 <g transform="translate(-84.499 -131.08)">
  <g transform="translate(0 -47.096)">
   <g transform="matrix(.10108 0 0 .10108 103.77 177.17)" clip-path="url(#clipPath4762)">
    <path d="m46.229 108.81c0-2.977-2.064-4.752-5.713-4.752-1.488 0-2.496 0.144-3.024 0.288v9.553c0.624 0.144 1.392 0.191 2.448 0.191 3.888 1e-3 6.289-1.967 6.289-5.28z"/>
    <path d="m158.58 79.838v-26.395c0-0.019-6e-3 -0.037-8e-3 -0.056-2e-3 -0.184-0.02-0.366-0.053-0.545-8e-3 -0.034-0.02-0.063-0.027-0.095-0.033-0.145-0.078-0.285-0.131-0.423-0.021-0.057-0.047-0.11-0.07-0.165-0.055-0.117-0.115-0.229-0.185-0.338-0.028-0.045-0.053-0.092-0.084-0.135-0.099-0.142-0.207-0.278-0.332-0.404l-39.903-40.373c-2e-3 -3e-3 -4e-3 -5e-3 -8e-3 -7e-3 -0.014-0.014-0.029-0.022-0.043-0.037-0.115-0.113-0.24-0.214-0.369-0.305-0.047-0.033-0.097-0.062-0.146-0.092-0.106-0.066-0.216-0.125-0.328-0.179-0.056-0.024-0.108-0.051-0.167-0.073-0.148-0.061-0.303-0.107-0.458-0.144-0.024-5e-3 -0.047-0.013-0.071-0.018-0.174-0.034-0.352-0.049-0.529-0.053-0.023-1e-3 -0.045-7e-3 -0.068-7e-3h-87.864c-1.699 0-3.076 1.377-3.076 3.076v66.767h-9.663v68.253h9.663v30.998c0 1.698 1.376 3.075 3.076 3.075h127.77c1.697 0 3.074-1.377 3.074-3.075v-30.998h9.338v-68.252zm-39.907-59.279 29.464 29.81h-29.464zm-88.433 78.654c2.256-0.384 5.424-0.672 9.889-0.672 4.512 0 7.729 0.863 9.889 2.592 2.064 1.632 3.457 4.32 3.457 7.488 0 3.169-1.056 5.857-2.976 7.681-2.497 2.353-6.193 3.409-10.513 3.409-0.96 0-1.824-0.049-2.496-0.145v11.569h-7.249v-31.922zm122.19 76.8h-121.62v-27.924h121.62zm-71.834-67.776v-9.457h6.721v32.355h-7.681l-6.913-12.481c-1.92-3.456-4.032-7.633-5.617-11.425l-0.144 0.048c0.192 4.272 0.288 8.833 0.288 14.113v9.745h-6.72v-32.355h8.544l6.721 11.857c1.92 3.408 3.84 7.44 5.28 11.089h0.144c-0.479-4.272-0.623-8.64-0.623-13.489zm31.823 17.33c1.681 0 3.024-0.192 3.601-0.48v-6.769h-4.992v-5.713h12.049v17.042c-2.256 0.768-6.528 1.824-10.801 1.824-5.904 0-10.177-1.488-13.153-4.368-2.977-2.784-4.608-7.009-4.561-11.762 0.048-10.753 7.873-16.897 18.481-16.897 4.177 0 7.393 0.816 8.978 1.585l-1.536 5.856c-1.776-0.769-3.984-1.393-7.537-1.393-6.097 0-10.705 3.456-10.705 10.465 0 6.674 4.176 10.61 10.176 10.61zm40.011-45.729h-121.62v-63.692h81.711v37.297c0 1.699 1.376 3.076 3.075 3.076h36.829v23.319z"/>
    <text y="210" fill="#000000" font-family="'Helvetica Neue', Helvetica, Arial-Unicode, Arial, Sans-serif" font-size="5px" font-weight="bold">Created by corpus delicti</text>
   </g>
   <g transform="matrix(.10111 0 0 .10111 83.779 174.26)" clip-path="url(#clipPath4758)">
    <path d="m71.011 137.7c0-3.051-2.117-4.871-5.856-4.871-1.525 0-2.56 0.147-3.101 0.295v9.793c0.641 0.147 1.428 0.196 2.51 0.196 3.986 0 6.447-2.018 6.447-5.413z"/>
    <path d="m151.08 108.51v-26.394c0-0.019-5e-3 -0.037-7e-3 -0.056-3e-3 -0.184-0.019-0.366-0.053-0.545-8e-3 -0.034-0.02-0.063-0.027-0.095-0.033-0.145-0.078-0.285-0.131-0.423-0.022-0.057-0.047-0.111-0.071-0.165-0.054-0.117-0.115-0.229-0.184-0.338-0.028-0.045-0.053-0.092-0.084-0.135-0.099-0.142-0.207-0.278-0.332-0.404l-39.904-40.373c-2e-3 -3e-3 -4e-3 -5e-3 -8e-3 -7e-3 -0.013-0.014-0.028-0.023-0.042-0.037-0.116-0.113-0.239-0.214-0.37-0.305-0.047-0.033-0.096-0.062-0.145-0.092-0.105-0.066-0.215-0.125-0.328-0.179-0.055-0.024-0.109-0.051-0.167-0.073-0.149-0.06-0.302-0.107-0.458-0.143-0.023-5e-3 -0.047-0.013-0.071-0.018-0.174-0.034-0.353-0.049-0.53-0.053-0.023-1e-3 -0.045-7e-3 -0.068-7e-3h-87.863c-1.699 0-3.075 1.377-3.075 3.076v66.767h-9.663v68.253h9.663v30.999c0 1.698 1.376 3.075 3.075 3.075h127.77c1.698 0 3.075-1.377 3.075-3.075v-30.999h9.338v-68.253h-9.338zm-39.904-59.28 29.463 29.81h-29.463zm33.753 155.46h-121.62v-27.923h121.62zm-116.29-44.351 0.838-6.053c1.033 0.345 2.361 0.591 3.838 0.591 3.148 0 5.117-1.428 5.117-6.595v-20.864h7.48v20.963c0 9.448-4.527 12.745-11.811 12.745-1.722 1e-3 -3.986-0.294-5.462-0.787zm25.984 0.247v-32.725c2.312-0.394 5.561-0.688 10.137-0.688 4.625 0 7.922 0.886 10.137 2.657 2.116 1.673 3.543 4.429 3.543 7.677s-1.082 6.003-3.051 7.873c-2.559 2.411-6.348 3.494-10.777 3.494-0.983 0-1.869-0.049-2.559-0.147v11.859zm47.832-5.708c1.723 0 3.101-0.197 3.691-0.492v-6.938h-5.118v-5.856h12.352v17.47c-2.312 0.787-6.692 1.87-11.071 1.87-6.053 0-10.434-1.525-13.484-4.479-3.051-2.854-4.724-7.185-4.675-12.057 0.05-11.022 8.07-17.321 18.946-17.321 4.281 0 7.578 0.837 9.202 1.624l-1.575 6.004c-1.82-0.788-4.084-1.428-7.726-1.428-6.25 0-10.974 3.543-10.974 10.728 0 6.839 4.282 10.875 10.432 10.875zm42.474-46.364h-121.62v-63.691h81.711v37.297c0 1.699 1.376 3.076 3.075 3.076h36.829v23.318z"/>
    <text y="238.16701" fill="#000000" font-family="'Helvetica Neue', Helvetica, Arial-Unicode, Arial, Sans-serif" font-size="5px" font-weight="bold">Created by corpus delicti</text>
    <text y="243.16701" fill="#000000" font-family="'Helvetica Neue', Helvetica, Arial-Unicode, Arial, Sans-serif" font-size="5px" font-weight="bold">from the Noun Project</text>
   </g>
  </g>
 </g>
</svg>
