<?xml version="1.0" encoding="UTF-8" standalone="no"?>
<svg
   xmlns:dc="http://purl.org/dc/elements/1.1/"
   xmlns:cc="http://creativecommons.org/ns#"
   xmlns:rdf="http://www.w3.org/1999/02/22-rdf-syntax-ns#"
   xmlns:svg="http://www.w3.org/2000/svg"
   xmlns="http://www.w3.org/2000/svg"
   xmlns:sodipodi="http://sodipodi.sourceforge.net/DTD/sodipodi-0.dtd"
   xmlns:inkscape="http://www.inkscape.org/namespaces/inkscape"
   viewBox="-2 -2 20 19.084213"
   width="20"
   height="19.084213"
   preserveAspectRatio="xMinYMin"
   class="icon__icon"
   version="1.1"
   id="svg835"
   sodipodi:docname="search-folder.svg"
   inkscape:version="1.0.2 (e86c8708, 2021-01-15)">
  <metadata
     id="metadata841">
    <rdf:RDF>
      <cc:Work
         rdf:about="">
        <dc:format>image/svg+xml</dc:format>
        <dc:type
           rdf:resource="http://purl.org/dc/dcmitype/StillImage" />
        <dc:title></dc:title>
      </cc:Work>
    </rdf:RDF>
  </metadata>
  <defs
     id="defs839" />
  <sodipodi:namedview
     pagecolor="#6b6b6b"
     bordercolor="#666666"
     borderopacity="1"
     objecttolerance="10"
     gridtolerance="10"
     guidetolerance="10"
     inkscape:pageopacity="0"
     inkscape:pageshadow="2"
     inkscape:window-width="1280"
     inkscape:window-height="1387"
     id="namedview837"
     showgrid="false"
     fit-margin-top="0"
     fit-margin-left="0"
     fit-margin-right="0"
     fit-margin-bottom="0"
     inkscape:zoom="14.291667"
     inkscape:cx="18.756589"
     inkscape:cy="14.241647"
     inkscape:window-x="0"
     inkscape:window-y="25"
     inkscape:window-maximized="0"
     inkscape:current-layer="svg835" />
  <path
     d="m 15,14 a 1,1 0 0 1 0,-2 1,1 0 0 0 1,-1 V 3 A 1,1 0 0 0 15,2 H 7.415 L 6.944,0.666 A 1.001,1.001 0 0 0 6,0 H 1 A 1,1 0 0 0 0,1 v 10 a 1,1 0 0 0 1,1 1,1 0 0 1 0,2 3,3 0 0 1 -3,-3 V 1 a 3,3 0 0 1 3,-3 h 5 c 1.306,0 2.417,0.835 2.83,2 H 15 a 3,3 0 0 1 3,3 v 8 a 3,3 0 0 1 -3,3 z M 9.99,13.904 A 5.002,5.002 0 0 1 3.697,6.197 5,5 0 0 1 11.404,12.49 l 2.9,2.9 a 1,1 0 0 1 -1.415,1.413 l -2.9,-2.899 z M 9.354,11.854 A 3.0009612,3.0009612 0 1 0 5.11,7.61 3.0002541,3.0002541 0 0 0 9.353,11.853 Z"
     id="path833"
     fillColor="#2f2f2f"/>
</svg>
